<svg width="53" height="53" viewBox="0 0 53 53" fill="none" xmlns="http://www.w3.org/2000/svg">
<g id="Logo">
<path id="Path_811_1_" d="M49.6 29.4146C49.1183 28.4511 48.5161 27.4876 48.0343 26.4036C49.3592 24.1153 50.4431 21.827 51.4066 19.4182C53.9358 12.3124 53.454 6.53135 49.9613 3.03865C46.4687 -0.454051 40.5672 -0.935803 33.4614 1.59339C31.0526 2.43646 28.6438 3.64084 26.476 4.96566C16.9614 -0.694928 7.92854 -1.77887 3.11102 3.15909C-1.70649 8.09704 -0.742986 16.889 4.91759 26.4036C4.43584 27.2467 3.95409 27.9693 3.59277 28.8124C-0.863427 37.4839 -1.34518 45.3124 3.11102 49.7686C5.39934 51.9365 8.41028 53.0204 11.4212 52.9C15.757 52.7795 19.9723 51.5751 23.8263 49.4073C25.8738 48.3233 27.8008 47.2394 29.6074 45.9146C32.8592 43.6262 35.7497 41.2175 38.5198 38.4474C39.965 37.0022 41.4103 35.4365 42.7351 33.8708C43.3373 33.2686 43.819 32.5459 44.3008 31.8233C44.7825 32.7868 45.2643 33.8708 45.6256 34.9547C45.6256 35.0751 45.746 35.1956 45.746 35.4365C46.4687 37.3635 46.9504 39.4109 46.9504 41.4584C47.0708 42.9036 46.5891 44.4693 45.6256 45.5532C43.819 47.3598 40.0854 47.3598 35.3884 45.6737C35.2679 45.6737 35.0271 45.5532 34.9066 45.5532C33.8227 46.3963 32.7387 47.2394 31.7752 47.962C30.9322 48.5642 30.2095 49.0459 29.3665 49.5277C30.6913 50.2503 32.0161 50.7321 33.4614 51.3343C35.9906 52.2978 38.7606 52.9 41.5307 52.9C43.0964 52.9 44.6621 52.6591 46.2278 52.1773C47.5526 51.6956 48.8774 50.8525 49.8409 49.889C53.3336 46.3963 53.9358 40.4949 51.2862 33.5094C50.8044 32.0642 50.3227 30.7394 49.6 29.4146ZM35.5088 7.13354C40.0854 5.44741 43.9395 5.44741 45.746 7.25398C47.5526 9.06055 47.5526 12.7941 45.8665 17.4912C45.3847 18.6956 44.903 19.9 44.3008 20.9839C42.4942 18.6956 40.5672 16.5277 38.5198 14.3598C37.1949 13.035 35.7497 11.7102 34.3044 10.5058C33.4614 9.78317 32.7387 9.18098 31.8957 8.57879C33.1 8.09704 34.3044 7.49485 35.5088 7.13354ZM7.20591 45.6737C5.2789 43.7467 5.39934 39.6518 7.44679 34.5934C7.8081 33.7503 8.16941 32.9073 8.65117 31.9438C9.25336 32.7868 9.97598 33.6299 10.6986 34.3525C11.903 35.6773 13.1074 37.1226 14.4322 38.4474C16.4796 40.4949 18.6475 42.4219 20.9358 44.2284C19.9723 44.7102 19.1293 45.0715 18.1658 45.4328C13.2278 47.4803 9.13291 47.6007 7.20591 45.6737ZM34.3044 34.3525C31.8957 36.7613 29.246 39.0496 26.3555 40.9766C21.538 37.6043 17.3227 33.6299 13.7096 28.9328C12.9869 28.0897 12.3847 27.2467 11.903 26.4036C13.83 23.6335 16.1183 20.9839 18.5271 18.4547C20.3336 16.6481 22.1402 15.0824 24.1877 13.5168C22.3811 12.3124 20.5745 11.2284 18.6475 10.3854C17.2022 11.5897 15.757 12.9146 14.4322 14.2394C12.3847 16.2868 10.4577 18.4547 8.65117 20.743C5.51978 14.4803 5.03802 9.30142 7.20591 7.0131C8.28985 6.0496 9.85554 5.56785 11.3008 5.68828C16.8409 5.68828 25.9942 10.024 34.3044 18.3343C36.7132 20.743 39.0015 23.3927 40.9285 26.1627C40.4468 26.8854 39.965 27.608 39.3628 28.3306C37.7971 30.6189 36.111 32.5459 34.3044 34.3525Z" fill="white"/>
<path id="Ellipse_22_1_" d="M27.8516 31.9848C30.8719 31.4947 32.923 28.6489 32.4328 25.6286C31.9426 22.6083 29.0968 20.5573 26.0766 21.0475C23.0563 21.5376 21.0053 24.3834 21.4954 27.4037C21.9856 30.4239 24.8314 32.475 27.8516 31.9848Z" fill="url(#paint0_linear_111_1316)"/>
</g>
<defs>
<linearGradient id="paint0_linear_111_1316" x1="26.0766" y1="21.0475" x2="27.8516" y2="31.9848" gradientUnits="userSpaceOnUse">
<stop stop-color="#35BCCC"/>
<stop offset="1" stop-color="#2C3D6E"/>
</linearGradient>
</defs>
</svg>
