<svg width="33" height="33" viewBox="0 0 33 33" fill="none" xmlns="http://www.w3.org/2000/svg">
<g id="Logo">
<path id="Path_811_1_" d="M30.883 18.3147C30.5831 17.7148 30.2081 17.1149 29.9082 16.44C30.7331 15.0152 31.408 13.5904 32.0079 12.0906C33.5827 7.66619 33.2827 4.06669 31.108 1.89199C28.9333 -0.282711 25.2588 -0.58267 20.8344 0.992113C19.3346 1.51704 17.8348 2.26694 16.485 3.09182C10.5609 -0.432691 4.93664 -1.1076 1.93705 1.96698C-1.06253 5.04155 -0.462614 10.5158 3.0619 16.44C2.76194 16.9649 2.46198 17.4149 2.23701 17.9398C-0.537606 23.339 -0.837565 28.2134 1.93705 30.988C3.36185 32.3378 5.23659 33.0127 7.11133 32.9377C9.81096 32.8627 12.4356 32.1128 14.8353 30.763C16.1101 30.0881 17.3099 29.4132 18.4348 28.5883C20.4595 27.1635 22.2592 25.6637 23.984 23.939C24.8839 23.0391 25.7837 22.0642 26.6086 21.0893C26.9836 20.7144 27.2835 20.2645 27.5835 19.8145C27.8835 20.4144 28.1834 21.0893 28.4084 21.7643C28.4084 21.8392 28.4834 21.9142 28.4834 22.0642C28.9333 23.264 29.2333 24.5389 29.2333 25.8137C29.3083 26.7136 29.0083 27.6884 28.4084 28.3633C27.2835 29.4882 24.9589 29.4882 22.0343 28.4383C21.9593 28.4383 21.8093 28.3633 21.7343 28.3633C21.0594 28.8883 20.3845 29.4132 19.7846 29.8631C19.2597 30.2381 18.8097 30.538 18.2848 30.838C19.1097 31.2879 19.9346 31.5879 20.8344 31.9628C22.4092 32.5628 24.134 32.9377 25.8587 32.9377C26.8336 32.9377 27.8085 32.7877 28.7833 32.4878C29.6082 32.1878 30.4331 31.6629 31.033 31.063C33.2077 28.8883 33.5827 25.2138 31.9329 20.8644C31.6329 19.9645 31.333 19.1396 30.883 18.3147ZM22.1093 4.44164C24.9589 3.39178 27.3585 3.39178 28.4834 4.51663C29.6082 5.64147 29.6082 7.96615 28.5584 10.8907C28.2584 11.6406 27.9584 12.3905 27.5835 13.0654C26.4587 11.6406 25.2588 10.2908 23.984 8.94102C23.1591 8.11613 22.2592 7.29124 21.3594 6.54135C20.8344 6.09141 20.3845 5.71646 19.8596 5.34151C20.6095 5.04155 21.3594 4.66661 22.1093 4.44164ZM4.4867 28.4383C3.28686 27.2385 3.36186 24.6888 4.63668 21.5393C4.86165 21.0144 5.08662 20.4894 5.38657 19.8895C5.76152 20.4144 6.21146 20.9394 6.6614 21.3893C7.41129 22.2142 8.16119 23.1141 8.98607 23.939C10.2609 25.2138 11.6107 26.4136 13.0355 27.5385C12.4356 27.8384 11.9107 28.0634 11.3108 28.2884C8.23618 29.5632 5.68653 29.6382 4.4867 28.4383ZM21.3594 21.3893C19.8596 22.8891 18.2098 24.3139 16.41 25.5137C13.4105 23.414 10.7858 20.9394 8.53614 18.0148C8.0862 17.4898 7.71125 16.9649 7.41129 16.44C8.61113 14.7152 10.0359 13.0654 11.5357 11.4907C12.6606 10.3658 13.7854 9.39095 15.0602 8.41609C13.9354 7.66619 12.8105 6.99129 11.6107 6.46636C10.7108 7.21626 9.81096 8.04114 8.98607 8.86603C7.71125 10.1409 6.51142 11.4907 5.38657 12.9155C3.43684 9.01601 3.13688 5.79145 4.4867 4.36665C5.1616 3.76673 6.13647 3.46677 7.03634 3.54176C10.4859 3.54176 16.1851 6.24139 21.3594 11.4157C22.8592 12.9155 24.284 14.5652 25.4838 16.29C25.1838 16.7399 24.8839 17.1899 24.5089 17.6398C23.5341 19.0646 22.4842 20.2645 21.3594 21.3893Z" fill="#2A3447"/>
<path id="Ellipse_22_1_" d="M17.3413 19.9151C19.2218 19.6099 20.4989 17.838 20.1937 15.9575C19.8885 14.0769 18.1166 12.7998 16.2361 13.105C14.3555 13.4102 13.0785 15.1821 13.3837 17.0627C13.6889 18.9432 15.4608 20.2203 17.3413 19.9151Z" fill="url(#paint0_linear_106_1822)"/>
</g>
<defs>
<linearGradient id="paint0_linear_106_1822" x1="16.2361" y1="13.105" x2="17.3413" y2="19.9151" gradientUnits="userSpaceOnUse">
<stop stop-color="#35BCCC"/>
<stop offset="1" stop-color="#2C3D6E"/>
</linearGradient>
</defs>
</svg>
