<svg width="120" height="120" viewBox="0 0 120 120" fill="none" xmlns="http://www.w3.org/2000/svg">
<g id="Group 91">
<path id="Ellipse 73" d="M113.4 60C117.045 60 120.038 57.0362 119.637 53.4132C118.584 43.8763 115.254 34.6969 109.888 26.6658C103.295 16.7988 93.9246 9.10849 82.961 4.56723C71.9974 0.02597 59.9334 -1.16223 48.2946 1.15288C36.6557 3.468 25.9647 9.18244 17.5736 17.5736C9.18244 25.9647 3.468 36.6557 1.15288 48.2946C-1.16223 59.9334 0.0259702 71.9974 4.56723 82.961C9.10849 93.9246 16.7988 103.295 26.6658 109.888C34.6969 115.254 43.8763 118.584 53.4132 119.637C57.0362 120.038 60 117.045 60 113.4C60 109.755 57.0306 106.848 53.4217 106.335C46.5005 105.353 39.8581 102.828 33.9993 98.9128C26.3031 93.7703 20.3046 86.4612 16.7624 77.9096C13.2203 69.358 12.2935 59.9481 14.0992 50.8698C15.905 41.7915 20.3623 33.4525 26.9074 26.9074C33.4525 20.3623 41.7915 15.905 50.8698 14.0992C59.9481 12.2935 69.358 13.2203 77.9096 16.7624C86.4612 20.3046 93.7703 26.3031 98.9128 33.9993C102.828 39.8581 105.353 46.5005 106.335 53.4217C106.848 57.0306 109.755 60 113.4 60Z" fill="#F9F9FD"/>
<path id="Ellipse 75" d="M28.5636 103.166C26.4178 106.113 27.0519 110.276 30.2162 112.086C38.5454 116.849 47.9259 119.561 57.5769 119.951C69.4341 120.43 81.1671 117.383 91.2923 111.194C101.417 105.005 109.48 95.9521 114.46 85.1809C118.514 76.4138 120.377 66.8286 119.937 57.2439C119.769 53.6026 116.353 51.1396 112.752 51.7058C109.151 52.272 106.74 55.6569 106.795 59.3016C106.899 66.2913 105.436 73.2453 102.479 79.6411C98.5944 88.0427 92.3056 95.1036 84.408 99.9311C76.5104 104.759 67.3586 107.136 58.11 106.762C51.0694 106.477 44.2134 104.608 38.0402 101.328C34.8213 99.6177 30.7095 100.22 28.5636 103.166Z" fill="#EDEAFF"/>
<path id="Ellipse 74" d="M113.4 60C117.045 60 120.038 57.0363 119.637 53.4133C119.017 47.795 117.604 42.2815 115.433 37.039C112.417 29.7595 107.998 23.1451 102.426 17.5736C96.8549 12.0021 90.2405 7.58251 82.961 4.56723C77.7185 2.39572 72.205 0.983153 66.5867 0.362636C62.9637 -0.0375201 60 2.95492 60 6.6C60 10.2451 62.9693 13.1523 66.5782 13.6646C70.4618 14.216 74.2695 15.2547 77.9096 16.7624C83.5876 19.1144 88.7468 22.5616 93.0926 26.9074C97.4384 31.2532 100.886 36.4124 103.238 42.0904C104.745 45.7305 105.784 49.5382 106.335 53.4218C106.848 57.0307 109.755 60 113.4 60Z" fill="#5D87FF"/>
</g>
</svg>
