<svg width="71" height="71" viewBox="0 0 71 71" fill="none" xmlns="http://www.w3.org/2000/svg">
<g id="Logo">
<path id="Path_811_1_" d="M66.4453 39.4044C65.8 38.1137 64.9933 36.8229 64.3479 35.3709C66.1227 32.3054 67.5747 29.2399 68.8655 26.0131C72.2536 16.4939 71.6083 8.74954 66.9294 4.07064C62.2505 -0.608258 54.3447 -1.25362 44.8256 2.13455C41.5988 3.26394 38.3719 4.87735 35.4678 6.6521C22.7218 -0.930941 10.6212 -2.38301 4.16759 4.23198C-2.28606 10.847 -0.995321 22.6249 6.58772 35.3709C5.94235 36.5003 5.29699 37.4683 4.81296 38.5977C-1.15667 50.2143 -1.80203 60.7015 4.16759 66.6711C7.23308 69.5753 11.2666 71.0273 15.3001 70.866C21.1084 70.7046 26.7554 69.0912 31.9183 66.1871C34.6611 64.735 37.2426 63.2829 39.6627 61.5082C44.0189 58.4427 47.8911 55.2159 51.6019 51.505C53.538 49.5689 55.4741 47.4715 57.2489 45.374C58.0556 44.5673 58.701 43.5993 59.3463 42.6312C59.9917 43.922 60.637 45.374 61.1211 46.8261C61.1211 46.9875 61.2824 47.1488 61.2824 47.4715C62.2505 50.0529 62.8958 52.7957 62.8958 55.5386C63.0572 57.4746 62.4118 59.5721 61.1211 61.0242C58.701 63.4443 53.6994 63.4443 47.4071 61.1855C47.2457 61.1855 46.923 61.0242 46.7617 61.0242C45.3096 62.1536 43.8576 63.2829 42.5668 64.251C41.4374 65.0577 40.4694 65.7031 39.34 66.3484C41.1147 67.3165 42.8895 67.9618 44.8256 68.7685C48.2138 70.0593 51.9246 70.866 55.6355 70.866C57.7329 70.866 59.8303 70.5433 61.9278 69.8979C63.7025 69.2526 65.4773 68.1232 66.768 66.8325C71.4469 62.1535 72.2536 54.2478 68.7041 44.89C68.0588 42.9539 67.4134 41.1792 66.4453 39.4044ZM47.5684 9.55625C53.6994 7.29747 58.8623 7.29747 61.2824 9.71759C63.7025 12.1377 63.7025 17.1393 61.4438 23.4316C60.7984 25.045 60.153 26.6584 59.3463 28.1105C56.9262 25.045 54.3447 22.1409 51.6019 19.2367C49.8272 17.462 47.8911 15.6872 45.955 14.0738C44.8256 13.1058 43.8575 12.2991 42.7282 11.4923C44.3416 10.847 45.955 10.0403 47.5684 9.55625ZM9.65319 61.1855C7.07173 58.604 7.23308 53.1184 9.97588 46.3421C10.4599 45.2127 10.9439 44.0833 11.5893 42.7926C12.396 43.922 13.364 45.0514 14.3321 46.0194C15.9455 47.7942 17.5589 49.7303 19.3337 51.505C22.0765 54.2478 24.9806 56.8293 28.0461 59.2494C26.7554 59.8948 25.626 60.3788 24.3353 60.8628C17.7203 63.6056 12.2347 63.767 9.65319 61.1855ZM45.955 46.0194C42.7282 49.2462 39.1787 52.3117 35.3065 54.8932C28.8528 50.3756 23.2059 45.0514 18.3656 38.759C17.3976 37.6297 16.5909 36.5003 15.9455 35.3709C18.527 31.66 21.5925 28.1105 24.8193 24.7223C27.2394 22.3022 29.6595 20.2048 32.4023 18.1073C29.9822 16.4939 27.5621 15.0419 24.9806 13.9125C23.0445 15.5259 21.1084 17.3006 19.3337 19.0754C16.5909 21.8182 14.0094 24.7223 11.5893 27.7878C7.39442 19.3981 6.74905 12.4604 9.65319 9.39491C11.1053 8.10418 13.2027 7.45881 15.1388 7.62015C22.5605 7.62015 34.8224 13.4284 45.955 24.561C49.1818 27.7878 52.2473 31.3373 54.8288 35.0482C54.1834 36.0162 53.538 36.9843 52.7313 37.9523C50.6339 41.0178 48.3751 43.5993 45.955 46.0194Z" fill="#2A3447"/>
<path id="Ellipse_22_1_" d="M37.3103 42.8476C41.3563 42.191 44.104 38.3787 43.4473 34.3327C42.7907 30.2867 38.9784 27.539 34.9324 28.1957C30.8864 28.8523 28.1388 32.6646 28.7954 36.7106C29.452 40.7566 33.2643 43.5043 37.3103 42.8476Z" fill="url(#paint0_linear_45_1275)"/>
</g>
<defs>
<linearGradient id="paint0_linear_45_1275" x1="34.9324" y1="28.1957" x2="37.3103" y2="42.8476" gradientUnits="userSpaceOnUse">
<stop stop-color="#35BCCC"/>
<stop offset="1" stop-color="#2C3D6E"/>
</linearGradient>
</defs>
</svg>
