<svg width="70" height="70" viewBox="0 0 70 70" fill="none" xmlns="http://www.w3.org/2000/svg">
<g id="Logo">
<path id="Path_811_1_" d="M65.5095 38.8494C64.8732 37.5769 64.0779 36.3043 63.4416 34.8727C65.1913 31.8504 66.623 28.8281 67.8955 25.6467C71.236 16.2616 70.5997 8.62631 65.9867 4.01331C61.3737 -0.599691 53.5793 -1.23597 44.1943 2.10448C41.0129 3.21797 37.8315 4.80865 34.9683 6.55841C22.4018 -0.917829 10.4717 -2.34945 4.1089 4.17238C-2.25386 10.6942 -0.981303 22.3062 6.49493 34.8727C5.85866 35.9862 5.22238 36.9406 4.74517 38.0541C-1.14038 49.507 -1.77665 59.8465 4.1089 65.7321C7.1312 68.5953 11.1079 70.0269 15.0846 69.8679C20.8111 69.7088 26.3785 68.1181 31.4687 65.2549C34.1729 63.8232 36.718 62.3916 39.1041 60.6419C43.3989 57.6196 47.2166 54.4382 50.8751 50.7796C52.784 48.8708 54.6928 46.8029 56.4426 44.735C57.2379 43.9396 57.8742 42.9852 58.5105 42.0308C59.1467 43.3033 59.783 44.735 60.2602 46.1666C60.2602 46.3257 60.4193 46.4847 60.4193 46.8029C61.3737 49.348 62.01 52.0521 62.01 54.7563C62.169 56.6651 61.5328 58.733 60.2602 60.1647C57.8742 62.5507 52.943 62.5507 46.7394 60.3237C46.5803 60.3237 46.2621 60.1647 46.1031 60.1647C44.6715 61.2781 43.2398 62.3916 41.9673 63.346C40.8538 64.1414 39.8994 64.7777 38.7859 65.4139C40.5357 66.3684 42.2854 67.0046 44.1943 67.8C47.5347 69.0725 51.1933 69.8679 54.8519 69.8679C56.9198 69.8679 58.9877 69.5497 61.0556 68.9135C62.8053 68.2772 64.5551 67.1637 65.8276 65.8911C70.4406 61.2781 71.236 53.4838 67.7365 44.2578C67.1002 42.3489 66.4639 40.5992 65.5095 38.8494ZM46.8984 9.42165C52.943 7.19469 58.0332 7.19469 60.4193 9.58072C62.8053 11.9668 62.8053 16.8979 60.5784 23.1016C59.9421 24.6923 59.3058 26.283 58.5105 27.7146C56.1244 24.6923 53.5793 21.829 50.8751 18.9658C49.1254 17.216 47.2166 15.4663 45.3077 13.8756C44.1942 12.9212 43.2398 12.1258 42.1264 11.3305C43.717 10.6942 45.3077 9.89886 46.8984 9.42165ZM9.51723 60.3237C6.97213 57.7786 7.13121 52.3703 9.83538 45.6894C10.3126 44.5759 10.7898 43.4624 11.4261 42.1899C12.2214 43.3033 13.1758 44.4168 14.1302 45.3712C15.7209 47.121 17.3116 49.0298 19.0614 50.7796C21.7655 53.4838 24.6288 56.0289 27.6511 58.4149C26.3785 59.0512 25.2651 59.5284 23.9925 60.0056C17.4707 62.7098 12.0623 62.8688 9.51723 60.3237ZM45.3077 45.3712C42.1264 48.5526 38.6268 51.5749 34.8092 54.12C28.4464 49.6661 22.879 44.4168 18.107 38.2131C17.1525 37.0997 16.3572 35.9862 15.7209 34.8727C18.266 31.2141 21.2883 27.7146 24.4697 24.3741C26.8557 21.9881 29.2418 19.9202 31.946 17.8523C29.5599 16.2616 27.1739 14.83 24.6288 13.7165C22.72 15.3072 20.8111 17.057 19.0614 18.8067C16.3572 21.5109 13.8121 24.3741 11.4261 27.3965C7.29028 19.1249 6.65399 12.2849 9.51723 9.26259C10.9489 7.99003 13.0168 7.35376 14.9256 7.51283C22.2427 7.51283 34.332 13.2393 45.3077 24.2151C48.4891 27.3965 51.5114 30.896 54.0565 34.5546C53.4202 35.509 52.784 36.4634 51.9886 37.4178C49.9207 40.4401 47.6938 42.9852 45.3077 45.3712Z" fill="white"/>
<path id="Ellipse_22_1_" d="M36.7852 42.2443C40.7742 41.5969 43.4832 37.8383 42.8358 33.8493C42.1884 29.8603 38.4298 27.1513 34.4408 27.7987C30.4518 28.4461 27.7428 32.2047 28.3902 36.1937C29.0376 40.1828 32.7962 42.8917 36.7852 42.2443Z" fill="url(#paint0_linear_111_1475)"/>
</g>
<defs>
<linearGradient id="paint0_linear_111_1475" x1="34.4408" y1="27.7987" x2="36.7852" y2="42.2443" gradientUnits="userSpaceOnUse">
<stop stop-color="#35BCCC"/>
<stop offset="1" stop-color="#2C3D6E"/>
</linearGradient>
</defs>
</svg>
