<svg width="22" height="22" viewBox="0 0 22 22" fill="none" xmlns="http://www.w3.org/2000/svg">
<g id="2 - Regular / file">
<path id="file-Regular" d="M17.6338 6.57892L13.5877 2.53269C13.2843 2.22928 12.8818 2.0625 12.4538 2.0625H8.24992C5.84917 2.0625 3.89575 4.01592 3.89575 6.41667V15.5833C3.89575 17.9841 5.84917 19.9375 8.24992 19.9375H13.7499C16.1507 19.9375 18.1041 17.9841 18.1041 15.5833V7.71278C18.1041 7.2847 17.9373 6.88142 17.6338 6.57892ZM13.5208 4.40922L15.7565 6.64494H15.1249C14.2403 6.64494 13.5208 5.92535 13.5208 5.04077V4.40922ZM13.7499 18.5625H8.24992C6.60725 18.5625 5.27075 17.226 5.27075 15.5833V6.41667C5.27075 4.774 6.60725 3.4375 8.24992 3.4375H12.1458V5.04167C12.1458 6.68433 13.4823 8.02083 15.1249 8.02083H16.7291V15.5833C16.7291 17.226 15.3926 18.5625 13.7499 18.5625Z" fill="#5D87FF"/>
</g>
</svg>
